<svg xmlns="http://www.w3.org/2000/svg" xmlns:xlink="http://www.w3.org/1999/xlink" width="500" zoomAndPan="magnify" viewBox="0 0 375 374.999991" height="500" preserveAspectRatio="xMidYMid meet" version="1.0"><defs><g/><clipPath id="id1"><path d="M 112.515625 68.527344 L 262.496094 68.527344 L 262.496094 143.527344 L 112.515625 143.527344 Z M 112.515625 68.527344 " clip-rule="nonzero"/></clipPath></defs><g clip-path="url(#id1)"><path fill="rgb(92.158508%, 70.979309%, 15.689087%)" d="M 126.871094 135.164062 C 126.871094 135.164062 122.507812 139.976562 118.148438 139.976562 C 113.789062 139.976562 110.9375 123.464844 113.464844 117.964844 C 117.351562 109.515625 122.121094 114.394531 124.46875 107.402344 C 126.816406 100.410156 127.917969 89.40625 133.417969 85.351562 C 137.921875 82.03125 144.921875 86.507812 148.5 82.753906 C 152.078125 78.996094 157.921875 72.351562 166.441406 69.535156 C 174.570312 66.847656 180.167969 75.558594 182.707031 72.894531 C 185.246094 70.230469 201.125 65.382812 208.53125 71.457031 C 214.976562 76.75 213.796875 78.582031 218.484375 78.238281 C 226.585938 77.640625 237.507812 80.253906 237.507812 88.886719 C 237.507812 95.695312 235.078125 97.484375 240.050781 97.484375 C 243.851562 97.484375 254.175781 101.269531 256.496094 110.6875 C 258.816406 120.109375 252.550781 124.539062 257.3125 124.539062 C 262.074219 124.539062 266.4375 147.78125 256.496094 142.851562 C 246.558594 137.921875 177.820312 131.0625 126.871094 135.164062 " fill-opacity="1" fill-rule="nonzero"/><path fill="rgb(96.078491%, 63.919067%, 16.468811%)" d="M 256.5 142.851562 C 246.558594 137.921875 177.824219 131.0625 126.871094 135.160156 C 126.871094 135.160156 122.511719 139.972656 118.152344 139.972656 C 113.789062 139.972656 110.941406 123.464844 113.460938 117.964844 C 117.351562 109.511719 122.121094 114.394531 124.46875 107.402344 C 126.816406 100.40625 127.917969 89.40625 133.414062 85.351562 C 135.601562 83.738281 138.386719 83.96875 141.070312 84.195312 C 143.90625 84.441406 146.640625 84.679688 148.480469 82.769531 L 148.5 82.75 C 152.074219 78.996094 157.917969 72.394531 166.441406 69.578125 C 169.210938 68.667969 171.671875 69.328125 173.832031 69.949219 L 173.839844 69.949219 C 177.542969 71.195312 180.324219 73.9375 182.078125 73.359375 C 182.128906 73.347656 182.183594 73.289062 182.238281 73.269531 C 182.304688 73.234375 182.371094 73.179688 182.4375 73.136719 C 182.445312 73.128906 182.445312 73.121094 182.453125 73.117188 C 182.539062 73.050781 182.625 72.972656 182.707031 72.886719 C 182.746094 72.84375 182.800781 72.792969 182.847656 72.75 C 182.90625 72.703125 182.96875 72.644531 183.035156 72.59375 C 183.089844 72.546875 183.148438 72.503906 183.210938 72.460938 C 183.277344 72.40625 183.351562 72.355469 183.425781 72.304688 C 187.410156 69.609375 201.640625 65.804688 208.53125 71.453125 C 210.761719 73.285156 212.078125 74.707031 213.042969 75.765625 C 214.464844 77.328125 215.117188 78.09375 216.800781 78.25 C 217.269531 78.292969 217.820312 78.285156 218.480469 78.234375 C 226.585938 77.644531 237.511719 80.257812 237.511719 88.882812 C 237.511719 90.8125 237.316406 92.335938 237.148438 93.535156 C 236.726562 96.570312 236.484375 97.5 240.050781 97.5 C 240.441406 97.5 240.898438 97.632812 241.414062 97.632812 C 241.414062 97.632812 241.421875 97.632812 241.429688 97.632812 C 241.785156 97.632812 242.152344 97.632812 242.554688 97.632812 C 242.554688 97.632812 242.554688 97.632812 242.5625 97.632812 C 247.203125 99.191406 254.582031 102.808594 256.5 110.585938 C 257.316406 113.902344 257.070312 116.644531 256.613281 118.75 C 256.605469 118.777344 256.597656 118.800781 256.59375 118.828125 C 256.59375 118.84375 256.585938 118.828125 256.585938 118.84375 C 255.742188 122.640625 254.257812 124.503906 257.308594 124.503906 C 257.410156 124.503906 257.519531 124.519531 257.617188 124.546875 C 257.625 124.539062 257.625 124.539062 257.632812 124.546875 C 257.636719 124.546875 257.644531 124.542969 257.652344 124.550781 C 262.273438 125.601562 266.203125 147.664062 256.5 142.851562 " fill-opacity="1" fill-rule="nonzero"/></g><path fill="rgb(89.019775%, 58.81958%, 15.289307%)" d="M 126.367188 128.121094 C 126.34375 127.816406 126.292969 127.503906 126.230469 127.1875 C 126.394531 129.261719 126.492188 129.851562 126.367188 128.121094 " fill-opacity="1" fill-rule="nonzero"/><path fill="rgb(89.019775%, 58.81958%, 15.289307%)" d="M 124.46875 107.402344 C 122.710938 112.644531 119.589844 111.214844 116.503906 113.726562 C 119.972656 116.972656 125.285156 122.566406 126.230469 127.1875 C 125.894531 123.035156 125.277344 112.921875 125.574219 103.59375 C 125.222656 104.941406 124.863281 106.230469 124.46875 107.402344 " fill-opacity="1" fill-rule="nonzero"/><path fill="rgb(89.019775%, 58.81958%, 15.289307%)" d="M 152.859375 96.957031 C 152.859375 98.539062 141.457031 105.230469 142.96875 101.183594 C 144.09375 98.152344 142.128906 89.214844 141.070312 84.195312 C 143.90625 84.441406 146.640625 84.679688 148.480469 82.769531 C 149.082031 89.652344 152.859375 95.851562 152.859375 96.957031 " fill-opacity="1" fill-rule="nonzero"/><path fill="rgb(89.019775%, 58.81958%, 15.289307%)" d="M 184.382812 82.871094 C 184.382812 82.871094 174.90625 85.949219 177.84375 82.871094 C 179.929688 80.6875 176.1875 73.714844 173.839844 69.847656 C 178.023438 71.460938 181.035156 74.652344 182.707031 72.890625 C 182.882812 72.707031 183.121094 72.511719 183.425781 72.304688 C 183.0625 77.011719 184.382812 82.871094 184.382812 82.871094 " fill-opacity="1" fill-rule="nonzero"/><path fill="rgb(89.019775%, 58.81958%, 15.289307%)" d="M 216.800781 78.25 C 211.726562 81.84375 209.1875 86.941406 208.917969 87.214844 C 208.554688 87.597656 199.476562 85.101562 203.832031 85.101562 C 207.113281 85.101562 211.210938 79.328125 213.042969 75.765625 C 214.464844 77.328125 215.117188 78.09375 216.800781 78.25 " fill-opacity="1" fill-rule="nonzero"/><path fill="rgb(89.019775%, 58.81958%, 15.289307%)" d="M 242.554688 97.703125 C 238.457031 97.90625 232.6875 98.417969 230.546875 100.085938 C 227.085938 102.792969 226.457031 97.46875 226.457031 97.46875 C 226.457031 97.46875 232.808594 96.140625 237.148438 93.554688 C 236.726562 96.589844 236.484375 97.507812 240.050781 97.507812 C 240.441406 97.507812 240.898438 97.632812 241.414062 97.632812 C 241.414062 97.632812 241.421875 97.632812 241.429688 97.632812 C 241.785156 97.632812 242.152344 97.605469 242.554688 97.703125 " fill-opacity="1" fill-rule="nonzero"/><path fill="rgb(89.019775%, 58.81958%, 15.289307%)" d="M 257.632812 124.542969 C 257.636719 124.542969 257.644531 124.542969 257.652344 124.546875 C 257.539062 124.542969 257.425781 124.542969 257.308594 124.542969 C 249.636719 124.542969 244.078125 122.753906 244.078125 122.753906 L 244.863281 118.554688 C 244.863281 118.554688 252.519531 121.789062 256.585938 118.824219 C 255.742188 122.617188 254.257812 124.492188 257.308594 124.492188 C 257.410156 124.492188 257.519531 124.511719 257.617188 124.542969 C 257.625 124.535156 257.625 124.535156 257.632812 124.542969 " fill-opacity="1" fill-rule="nonzero"/><path fill="rgb(96.078491%, 79.60968%, 35.688782%)" d="M 124.46875 137.683594 C 124.46875 125.007812 130.457031 83.222656 185.757812 80.875 C 241.058594 78.527344 256.496094 142.851562 256.496094 142.851562 C 213.933594 135.523438 169.835938 134.148438 124.46875 137.683594 " fill-opacity="1" fill-rule="nonzero"/><path fill="rgb(100%, 82.749939%, 37.249756%)" d="M 159.566406 106.816406 C 159.96875 102.941406 168.972656 89.910156 189.351562 93.535156 C 209.726562 97.15625 211.882812 109.457031 205.847656 111.042969 C 199.808594 112.625 189.078125 107.867188 180.695312 109.277344 C 172.3125 110.6875 158.730469 114.914062 159.566406 106.816406 " fill-opacity="1" fill-rule="nonzero"/><path fill="rgb(96.859741%, 76.858521%, 23.919678%)" d="M 256.496094 142.851562 C 256.496094 142.851562 255.160156 137.292969 251.875 129.503906 C 242.457031 131.777344 228.707031 130.207031 187.507812 131.464844 C 156.964844 132.398438 138.082031 126.546875 127.082031 120.847656 C 124.984375 127.804688 124.46875 133.984375 124.46875 137.683594 C 169.835938 134.148438 213.933594 135.523438 256.496094 142.851562 " fill-opacity="1" fill-rule="nonzero"/><path fill="rgb(96.859741%, 72.549438%, 23.919678%)" d="M 145.816406 104.820312 C 143.414062 106.085938 139.78125 105.992188 142.910156 109.28125 C 146.039062 112.566406 150.847656 116.847656 151.183594 111.832031 C 151.519531 106.816406 148.898438 103.195312 145.816406 104.820312 " fill-opacity="1" fill-rule="nonzero"/><path fill="rgb(96.859741%, 72.549438%, 23.919678%)" d="M 180.695312 102.464844 C 180.695312 100.3125 191.554688 98.464844 190.484375 102.464844 C 189.414062 106.464844 180.695312 106.210938 180.695312 102.464844 " fill-opacity="1" fill-rule="nonzero"/><path fill="rgb(96.859741%, 72.549438%, 23.919678%)" d="M 211.101562 114.128906 C 208.832031 114.128906 212.300781 122.875 214.230469 120.847656 C 216.160156 118.820312 215.125 114.128906 211.101562 114.128906 " fill-opacity="1" fill-rule="nonzero"/><path fill="rgb(96.859741%, 72.549438%, 23.919678%)" d="M 209.726562 97.15625 C 209.726562 98.714844 209.511719 103.710938 212.765625 102.738281 C 216.019531 101.769531 219.816406 98.878906 216.800781 97.15625 C 213.78125 95.429688 209.726562 94.886719 209.726562 97.15625 " fill-opacity="1" fill-rule="nonzero"/><path fill="rgb(96.859741%, 72.549438%, 23.919678%)" d="M 188.261719 119.691406 C 188.261719 121.253906 188.046875 126.246094 191.300781 125.273438 C 194.554688 124.304688 198.351562 121.417969 195.335938 119.691406 C 192.320312 117.964844 188.261719 117.425781 188.261719 119.691406 " fill-opacity="1" fill-rule="nonzero"/><path fill="rgb(100%, 82.749939%, 37.249756%)" d="M 203.378906 126.203125 C 203.378906 127.113281 203.253906 130.023438 205.152344 129.457031 C 207.050781 128.890625 209.261719 127.207031 207.503906 126.203125 C 205.746094 125.195312 203.378906 124.878906 203.378906 126.203125 " fill-opacity="1" fill-rule="nonzero"/><path fill="rgb(96.859741%, 72.549438%, 23.919678%)" d="M 166.609375 118.554688 C 163.210938 118.554688 166.832031 125.964844 170.410156 124.546875 C 173.988281 123.128906 172.421875 118.554688 166.609375 118.554688 " fill-opacity="1" fill-rule="nonzero"/><path fill="rgb(96.859741%, 72.549438%, 23.919678%)" d="M 231.28125 121.070312 C 228.324219 121.070312 231.472656 127.519531 234.585938 126.285156 C 237.699219 125.050781 236.339844 121.070312 231.28125 121.070312 " fill-opacity="1" fill-rule="nonzero"/><path fill="rgb(96.859741%, 72.549438%, 23.919678%)" d="M 231.476562 115.964844 C 229.878906 115.964844 231.582031 119.453125 233.265625 118.785156 C 234.953125 118.117188 234.214844 115.964844 231.476562 115.964844 " fill-opacity="1" fill-rule="nonzero"/><path fill="rgb(100%, 82.749939%, 37.249756%)" d="M 185.871094 125.824219 C 184.269531 125.824219 185.976562 129.3125 187.660156 128.644531 C 189.34375 127.976562 188.605469 125.824219 185.871094 125.824219 " fill-opacity="1" fill-rule="nonzero"/><path fill="rgb(96.859741%, 76.858521%, 23.919678%)" d="M 185.757812 80.875 C 130.457031 83.222656 124.46875 125.007812 124.46875 137.683594 C 127.480469 137.449219 130.484375 137.242188 133.480469 137.050781 C 134.792969 133.191406 135.757812 130.320312 135.757812 130.320312 C 131.816406 126.183594 142.09375 93.492188 165.25 89.304688 C 188.40625 85.113281 213.570312 85.523438 224.625 97.132812 C 233.371094 106.316406 246.949219 126.742188 249.835938 141.765625 C 252.0625 142.113281 254.28125 142.46875 256.496094 142.851562 C 256.496094 142.851562 241.058594 78.527344 185.757812 80.875 " fill-opacity="1" fill-rule="nonzero"/><path fill="rgb(96.859741%, 76.858521%, 23.919678%)" d="M 241.808594 121.761719 C 241.808594 121.761719 244.660156 129.789062 240.871094 130.773438 C 237.082031 131.757812 247.082031 131.847656 247.082031 131.847656 L 247.082031 125.476562 L 241.808594 121.761719 " fill-opacity="1" fill-rule="nonzero"/><path fill="rgb(96.859741%, 76.858521%, 23.919678%)" d="M 135.589844 115.390625 C 135.589844 115.972656 134.222656 124.6875 141.695312 128.648438 C 149.171875 132.609375 128.714844 126.804688 128.714844 126.804688 L 132.65625 117.640625 L 135.589844 115.390625 " fill-opacity="1" fill-rule="nonzero"/><path fill="rgb(96.859741%, 72.549438%, 23.919678%)" d="M 174.660156 87.253906 C 172.15625 87.253906 170.339844 91.4375 173.839844 91.4375 C 177.339844 91.4375 177.789062 87.253906 174.660156 87.253906 " fill-opacity="1" fill-rule="nonzero"/><g fill="rgb(100%, 65.489197%, 89.408875%)" fill-opacity="1"><g transform="translate(63.21091, 270.57549)"><g><path d="M 12.761719 -23.84375 L 21.0625 -23.84375 C 22.25 -23.84375 23.230469 -24.824219 23.230469 -25.96875 L 23.230469 -30.550781 C 23.230469 -31.738281 22.25 -32.675781 21.0625 -32.675781 L 4.335938 -32.675781 C 2.660156 -32.675781 1.351562 -31.367188 1.351562 -30.429688 L 1.351562 -3.804688 C 1.351562 -1.390625 2.660156 -0.0820312 4.335938 -0.0820312 L 21.0625 -0.0820312 C 22.25 -0.0820312 23.230469 -1.023438 23.230469 -2.207031 L 23.230469 -6.789062 C 23.230469 -7.976562 22.25 -8.996094 21.0625 -8.996094 L 12.761719 -8.996094 C 12.597656 -8.996094 12.472656 -9.121094 12.472656 -9.285156 L 12.472656 -11.902344 C 12.472656 -12.066406 12.597656 -12.1875 12.761719 -12.1875 L 18.773438 -12.1875 C 19.835938 -12.1875 20.734375 -13.046875 20.734375 -14.152344 L 20.734375 -18.609375 C 20.734375 -19.671875 19.835938 -20.570312 18.773438 -20.570312 L 12.761719 -20.570312 C 12.597656 -20.570312 12.472656 -20.695312 12.472656 -20.816406 L 12.472656 -23.515625 C 12.472656 -23.640625 12.597656 -23.84375 12.761719 -23.84375 Z M 12.761719 -23.84375 "/></g></g></g><g fill="rgb(100%, 65.489197%, 89.408875%)" fill-opacity="1"><g transform="translate(87.783811, 270.57549)"><g><path d="M 41.839844 -2.820312 C 41.839844 -3.109375 41.839844 -2.945312 37.953125 -29.445312 C 37.625 -31.203125 36.113281 -32.554688 34.273438 -32.59375 L 27.195312 -32.59375 C 25.398438 -32.59375 23.882812 -31.328125 23.597656 -29.609375 L 21.960938 -19.917969 C 21.921875 -19.550781 21.636719 -19.304688 21.265625 -19.304688 C 20.859375 -19.304688 20.53125 -19.671875 20.53125 -20.039062 L 20.53125 -20 L 19.425781 -29.363281 C 19.179688 -31.164062 17.625 -32.554688 15.746094 -32.59375 L 8.671875 -32.59375 C 6.871094 -32.59375 5.398438 -31.328125 5.070312 -29.609375 L 3.066406 -17.382812 L 1.269531 -6.667969 L 0.734375 -3.3125 C 0.695312 -3.109375 0.695312 -2.945312 0.695312 -2.820312 C 0.695312 -1.269531 1.964844 0 3.476562 0 L 8.957031 0 C 10.304688 -0.0390625 11.410156 -1.023438 11.613281 -2.332031 L 13.660156 -13.863281 L 13.863281 -15.050781 L 15.621094 -2.496094 C 15.746094 -1.105469 16.929688 0 18.363281 0 L 24.253906 0 C 25.683594 0 26.871094 -1.105469 27.035156 -2.496094 L 28.628906 -14.230469 L 28.710938 -14.640625 L 28.914062 -13.863281 L 30.878906 -2.332031 C 31.121094 -1.023438 32.226562 -0.0390625 33.578125 0 L 39.015625 0 C 40.609375 0 41.839844 -1.269531 41.839844 -2.820312 Z M 41.839844 -2.820312 "/></g></g></g><g fill="rgb(100%, 65.489197%, 89.408875%)" fill-opacity="1"><g transform="translate(130.305979, 270.57549)"><g><path d="M 24.171875 -27.6875 C 23.269531 -30.632812 20.570312 -32.636719 17.503906 -32.636719 L 4.539062 -32.636719 C 2.78125 -32.636719 1.351562 -31.164062 1.351562 -29.40625 L 1.351562 -3.3125 C 1.351562 -1.511719 2.78125 -0.0820312 4.539062 -0.0820312 L 8.792969 -0.0820312 C 10.550781 -0.0820312 11.984375 -1.511719 11.984375 -3.3125 L 11.984375 -10.796875 L 17.667969 -10.796875 C 19.386719 -10.796875 21.019531 -11.53125 22.125 -12.84375 C 23.476562 -14.476562 24.867188 -17.300781 24.867188 -22.003906 C 24.867188 -24.375 24.578125 -26.296875 24.171875 -27.6875 Z M 15.703125 -22.085938 L 15.703125 -21.511719 C 15.703125 -20.121094 14.640625 -19.058594 13.292969 -19.058594 L 12.515625 -19.058594 C 12.1875 -19.058594 11.984375 -19.261719 11.984375 -19.550781 L 11.984375 -23.964844 C 11.984375 -24.253906 12.1875 -24.539062 12.515625 -24.539062 L 13.292969 -24.539062 C 14.640625 -24.539062 15.703125 -23.394531 15.703125 -22.085938 Z M 15.703125 -22.085938 "/></g></g></g><g fill="rgb(100%, 65.489197%, 89.408875%)" fill-opacity="1"><g transform="translate(155.860165, 270.57549)"><g><path d="M 31.203125 -3.433594 L 24.253906 -29.894531 C 24.128906 -30.386719 24.007812 -31.121094 23.433594 -31.777344 C 22.820312 -32.390625 22.042969 -32.554688 21.472656 -32.554688 L 10.757812 -32.554688 C 10.144531 -32.554688 9.570312 -32.351562 9.160156 -32.023438 C 8.753906 -31.738281 8.300781 -31.246094 8.136719 -30.507812 L 0.777344 -3.476562 C 0.449219 -2.167969 1.0625 -0.777344 2.289062 -0.246094 C 2.617188 -0.0820312 2.945312 -0.0390625 3.355469 -0.0390625 L 8.914062 -0.0390625 C 10.429688 -0.0390625 11.042969 -0.980469 11.65625 -2.535156 L 12.84375 -5.726562 L 19.097656 -5.726562 L 20.324219 -2.535156 C 20.941406 -0.980469 21.554688 0 23.066406 0 L 28.628906 0 C 29.078125 0 29.527344 -0.121094 29.855469 -0.328125 C 30.960938 -0.898438 31.492188 -2.207031 31.203125 -3.433594 Z M 17.914062 -15.171875 L 14.109375 -15.171875 C 13.699219 -15.171875 13.375 -15.542969 13.578125 -15.949219 L 14.640625 -18.730469 L 15.460938 -20.859375 C 15.621094 -21.390625 16.359375 -21.390625 16.523438 -20.859375 L 17.382812 -18.730469 L 18.445312 -15.949219 C 18.566406 -15.542969 18.28125 -15.171875 17.914062 -15.171875 Z M 17.914062 -15.171875 "/></g></g></g><g fill="rgb(100%, 65.489197%, 89.408875%)" fill-opacity="1"><g transform="translate(187.833559, 270.57549)"><g><path d="M 25.234375 -32.675781 L 20.082031 -32.675781 C 18.484375 -32.675781 17.09375 -31.367188 17.09375 -29.734375 L 17.09375 -20.121094 L 12.308594 -30.753906 C 11.859375 -31.898438 10.757812 -32.675781 9.488281 -32.675781 L 4.335938 -32.675781 C 2.699219 -32.675781 1.351562 -31.367188 1.351562 -29.734375 L 1.351562 -2.414062 C 1.351562 -0.777344 2.699219 0.53125 4.335938 0.53125 L 9.488281 0.53125 C 11.164062 0.53125 12.472656 -0.777344 12.472656 -2.414062 L 12.472656 -11.613281 L 17.257812 -1.472656 C 17.75 -0.328125 18.773438 0.53125 20.082031 0.53125 L 25.234375 0.53125 C 26.910156 0.53125 28.21875 -0.777344 28.21875 -2.414062 L 28.21875 -29.734375 C 28.21875 -31.367188 26.910156 -32.675781 25.234375 -32.675781 Z M 25.234375 -32.675781 "/></g></g></g><g fill="rgb(100%, 65.489197%, 89.408875%)" fill-opacity="1"><g transform="translate(217.394642, 270.57549)"><g><path d="M 31.203125 -3.433594 L 24.253906 -29.894531 C 24.128906 -30.386719 24.007812 -31.121094 23.433594 -31.777344 C 22.820312 -32.390625 22.042969 -32.554688 21.472656 -32.554688 L 10.757812 -32.554688 C 10.144531 -32.554688 9.570312 -32.351562 9.160156 -32.023438 C 8.753906 -31.738281 8.300781 -31.246094 8.136719 -30.507812 L 0.777344 -3.476562 C 0.449219 -2.167969 1.0625 -0.777344 2.289062 -0.246094 C 2.617188 -0.0820312 2.945312 -0.0390625 3.355469 -0.0390625 L 8.914062 -0.0390625 C 10.429688 -0.0390625 11.042969 -0.980469 11.65625 -2.535156 L 12.84375 -5.726562 L 19.097656 -5.726562 L 20.324219 -2.535156 C 20.941406 -0.980469 21.554688 0 23.066406 0 L 28.628906 0 C 29.078125 0 29.527344 -0.121094 29.855469 -0.328125 C 30.960938 -0.898438 31.492188 -2.207031 31.203125 -3.433594 Z M 17.914062 -15.171875 L 14.109375 -15.171875 C 13.699219 -15.171875 13.375 -15.542969 13.578125 -15.949219 L 14.640625 -18.730469 L 15.460938 -20.859375 C 15.621094 -21.390625 16.359375 -21.390625 16.523438 -20.859375 L 17.382812 -18.730469 L 18.445312 -15.949219 C 18.566406 -15.542969 18.28125 -15.171875 17.914062 -15.171875 Z M 17.914062 -15.171875 "/></g></g></g><g fill="rgb(100%, 65.489197%, 89.408875%)" fill-opacity="1"><g transform="translate(249.368036, 270.57549)"><g><path d="M 15.296875 -32.675781 L 4.292969 -32.675781 C 2.578125 -32.675781 1.351562 -31.246094 1.351562 -29.734375 L 1.351562 -3.109375 C 1.351562 -1.636719 2.578125 -0.121094 4.292969 -0.121094 L 15.296875 -0.121094 C 21.714844 -0.121094 26.625 -5.316406 26.625 -11.492188 L 26.625 -21.347656 C 26.625 -27.523438 21.714844 -32.675781 15.296875 -32.675781 Z M 16.644531 -15.417969 C 16.644531 -13.699219 15.378906 -12.515625 13.699219 -12.515625 L 11.738281 -12.515625 C 11.453125 -12.515625 11.164062 -12.71875 11.164062 -13.210938 L 11.164062 -19.589844 C 11.164062 -20.121094 11.453125 -20.367188 11.738281 -20.367188 L 13.699219 -20.367188 C 15.378906 -20.367188 16.644531 -19.140625 16.644531 -17.382812 Z M 16.644531 -15.417969 "/></g></g></g><g fill="rgb(100%, 65.489197%, 89.408875%)" fill-opacity="1"><g transform="translate(277.00745, 270.57549)"><g><path d="M 31.203125 -3.433594 L 24.253906 -29.894531 C 24.128906 -30.386719 24.007812 -31.121094 23.433594 -31.777344 C 22.820312 -32.390625 22.042969 -32.554688 21.472656 -32.554688 L 10.757812 -32.554688 C 10.144531 -32.554688 9.570312 -32.351562 9.160156 -32.023438 C 8.753906 -31.738281 8.300781 -31.246094 8.136719 -30.507812 L 0.777344 -3.476562 C 0.449219 -2.167969 1.0625 -0.777344 2.289062 -0.246094 C 2.617188 -0.0820312 2.945312 -0.0390625 3.355469 -0.0390625 L 8.914062 -0.0390625 C 10.429688 -0.0390625 11.042969 -0.980469 11.65625 -2.535156 L 12.84375 -5.726562 L 19.097656 -5.726562 L 20.324219 -2.535156 C 20.941406 -0.980469 21.554688 0 23.066406 0 L 28.628906 0 C 29.078125 0 29.527344 -0.121094 29.855469 -0.328125 C 30.960938 -0.898438 31.492188 -2.207031 31.203125 -3.433594 Z M 17.914062 -15.171875 L 14.109375 -15.171875 C 13.699219 -15.171875 13.375 -15.542969 13.578125 -15.949219 L 14.640625 -18.730469 L 15.460938 -20.859375 C 15.621094 -21.390625 16.359375 -21.390625 16.523438 -20.859375 L 17.382812 -18.730469 L 18.445312 -15.949219 C 18.566406 -15.542969 18.28125 -15.171875 17.914062 -15.171875 Z M 17.914062 -15.171875 "/></g></g></g><path stroke-linecap="butt" transform="matrix(0.75, 0, 0, 0.75, 0.0000045, 237.303779)" fill="none" stroke-linejoin="miter" d="M 103.171876 11.209546 L 114.234377 11.209546 C 115.81771 11.209546 117.135418 9.902254 117.135418 8.371004 L 117.135418 2.261628 C 117.135418 0.69392 115.81771 -0.571705 114.234377 -0.571705 L 91.932292 -0.571705 C 89.697917 -0.571705 87.953125 1.173087 87.953125 2.433503 L 87.953125 37.928297 C 87.953125 41.147048 89.697917 42.891839 91.932292 42.891839 L 114.234377 42.891839 C 115.81771 42.891839 117.135418 41.641839 117.135418 40.058506 L 117.135418 33.94913 C 117.135418 32.360589 115.81771 31.006422 114.234377 31.006422 L 103.171876 31.006422 C 102.958334 31.006422 102.786459 30.844964 102.786459 30.621005 L 102.786459 27.131422 C 102.786459 26.91788 102.958334 26.746005 103.171876 26.746005 L 111.182293 26.746005 C 112.609376 26.746005 113.807293 25.600172 113.807293 24.13663 L 113.807293 18.183504 C 113.807293 16.772046 112.609376 15.574129 111.182293 15.574129 L 103.171876 15.574129 C 102.958334 15.574129 102.786459 15.402254 102.786459 15.240796 L 102.786459 11.647046 C 102.786459 11.485587 102.958334 11.209546 103.171876 11.209546 Z M 174.70313 39.230381 C 174.70313 38.860589 174.70313 39.074131 169.520838 3.740795 C 169.083338 1.397045 167.072922 -0.39983 164.60938 -0.467538 L 155.182296 -0.467538 C 152.786462 -0.467538 150.765629 1.22517 150.380212 3.527253 L 148.208337 16.438713 C 148.140629 16.933504 147.770837 17.266838 147.276045 17.266838 C 146.72917 17.266838 146.29167 16.772046 146.29167 16.282463 L 146.29167 16.334546 L 144.828129 3.844962 C 144.494795 1.449128 142.41667 -0.39983 139.91667 -0.467538 L 130.473961 -0.467538 C 128.078127 -0.467538 126.125002 1.22517 125.682294 3.527253 L 123.00521 19.82413 L 120.609377 34.10538 L 119.906252 38.579339 C 119.854169 38.860589 119.854169 39.074131 119.854169 39.230381 C 119.854169 41.308506 121.541669 43.001214 123.552085 43.001214 L 130.859378 43.001214 C 132.661461 42.949131 134.135419 41.641839 134.401044 39.897048 L 137.130211 24.506422 L 137.411461 22.938713 L 139.755212 39.673089 C 139.91667 41.522048 141.500003 43.001214 143.401045 43.001214 L 151.255212 43.001214 C 153.161462 43.001214 154.744796 41.522048 154.958338 39.673089 L 157.088546 24.027255 L 157.192713 23.485588 L 157.473963 24.506422 L 160.083338 39.897048 C 160.416671 41.641839 161.895838 42.949131 163.692713 43.001214 L 170.947922 43.001214 C 173.062505 43.001214 174.70313 41.308506 174.70313 39.230381 Z M 207.848966 6.084545 C 206.651049 2.157462 203.041674 -0.519622 198.953132 -0.519622 L 181.671881 -0.519622 C 179.328131 -0.519622 177.411464 1.449128 177.411464 3.792878 L 177.411464 38.579339 C 177.411464 40.975173 179.328131 42.891839 181.671881 42.891839 L 187.343756 42.891839 C 189.687506 42.891839 191.593757 40.975173 191.593757 38.579339 L 191.593757 28.610588 L 199.166674 28.610588 C 201.468757 28.610588 203.640632 27.621005 205.119799 25.881422 C 206.916674 23.693921 208.765633 19.928296 208.765633 13.657462 C 208.765633 10.501212 208.390633 7.933504 207.848966 6.084545 Z M 196.557299 13.553296 L 196.557299 14.324129 C 196.557299 16.173088 195.135423 17.584546 193.33334 17.584546 L 192.296882 17.584546 C 191.869798 17.584546 191.593757 17.318921 191.593757 16.933504 L 191.593757 11.048087 C 191.593757 10.662671 191.869798 10.277254 192.296882 10.277254 L 193.33334 10.277254 C 195.135423 10.277254 196.557299 11.808504 196.557299 13.553296 Z M 251.291677 38.417881 L 242.026052 3.141837 C 241.864593 2.490795 241.692718 1.501212 240.932301 0.626212 C 240.119801 -0.186288 239.083343 -0.39983 238.31251 -0.39983 L 224.02605 -0.39983 C 223.21355 -0.39983 222.442717 -0.134205 221.911467 0.303295 C 221.364592 0.69392 220.750008 1.344962 220.536467 2.313712 L 210.729175 38.365797 C 210.286466 40.110589 211.098966 41.959548 212.739591 42.667881 C 213.177091 42.891839 213.614591 42.949131 214.161466 42.949131 L 221.578134 42.949131 C 223.58855 42.949131 224.411467 41.693923 225.223967 39.621006 L 226.807301 35.371006 L 235.156259 35.371006 L 236.791676 39.621006 C 237.604176 41.693923 238.432301 43.001214 240.442718 43.001214 L 247.859385 43.001214 C 248.458344 43.001214 249.057302 42.839756 249.494802 42.558506 C 250.973969 41.803298 251.677094 40.058506 251.291677 38.417881 Z M 233.572926 22.766838 L 228.500009 22.766838 C 227.953134 22.766838 227.515634 22.282463 227.791676 21.740796 L 229.203134 18.027254 L 230.296884 15.188713 C 230.520842 14.485588 231.494801 14.485588 231.723968 15.188713 L 232.864593 18.027254 L 234.276051 21.740796 C 234.453134 22.282463 234.062509 22.766838 233.572926 22.766838 Z M 285.963554 -0.571705 L 279.093762 -0.571705 C 276.963554 -0.571705 275.109387 1.173087 275.109387 3.355378 L 275.109387 16.173088 L 268.734387 1.996003 C 268.135428 0.464753 266.656262 -0.571705 264.968761 -0.571705 L 258.098969 -0.571705 C 255.916677 -0.571705 254.114594 1.173087 254.114594 3.355378 L 254.114594 39.777256 C 254.114594 41.959548 255.916677 43.704339 258.098969 43.704339 L 264.968761 43.704339 C 267.203137 43.704339 268.947928 41.959548 268.947928 39.777256 L 268.947928 27.516838 L 275.338554 41.042881 C 275.989595 42.558506 277.348971 43.704339 279.093762 43.704339 L 285.963554 43.704339 C 288.19793 43.704339 289.942721 41.959548 289.942721 39.777256 L 289.942721 3.355378 C 289.942721 1.173087 288.19793 -0.571705 285.963554 -0.571705 Z M 333.338558 38.417881 L 324.072932 3.141837 C 323.911474 2.490795 323.739599 1.501212 322.979182 0.626212 C 322.166682 -0.186288 321.130223 -0.39983 320.35939 -0.39983 L 306.072931 -0.39983 C 305.260431 -0.39983 304.489597 -0.134205 303.958347 0.303295 C 303.411472 0.69392 302.796889 1.344962 302.583347 2.313712 L 292.770847 38.365797 C 292.333347 40.110589 293.145847 41.959548 294.781263 42.667881 C 295.223972 42.891839 295.661472 42.949131 296.208347 42.949131 L 303.625014 42.949131 C 305.635431 42.949131 306.458347 41.693923 307.270848 39.621006 L 308.854181 35.371006 L 317.20314 35.371006 L 318.838557 39.621006 C 319.651057 41.693923 320.479182 43.001214 322.489599 43.001214 L 329.901057 43.001214 C 330.500016 43.001214 331.098974 42.839756 331.541682 42.558506 C 333.015641 41.803298 333.723974 40.058506 333.338558 38.417881 Z M 315.619806 22.766838 L 310.546889 22.766838 C 310.000014 22.766838 309.562514 22.282463 309.838556 21.740796 L 311.250014 18.027254 L 312.343765 15.188713 C 312.567723 14.485588 313.541681 14.485588 313.76564 15.188713 L 314.911473 18.027254 L 316.322931 21.740796 C 316.494806 22.282463 316.10939 22.766838 315.619806 22.766838 Z M 354.760434 -0.571705 L 340.088558 -0.571705 C 337.8021 -0.571705 336.161474 1.344962 336.161474 3.355378 L 336.161474 38.860589 C 336.161474 40.818923 337.8021 42.839756 340.088558 42.839756 L 354.760434 42.839756 C 363.322935 42.839756 369.859393 35.917881 369.859393 27.678297 L 369.859393 14.537671 C 369.859393 6.298087 363.322935 -0.571705 354.760434 -0.571705 Z M 356.557309 22.443921 C 356.557309 24.735588 354.869809 26.318922 352.630225 26.318922 L 350.02085 26.318922 C 349.635434 26.318922 349.250017 26.037672 349.250017 25.38663 L 349.250017 16.881421 C 349.250017 16.173088 349.635434 15.839754 350.02085 15.839754 L 352.630225 15.839754 C 354.869809 15.839754 356.557309 17.480379 356.557309 19.82413 Z M 412.822938 38.417881 L 403.557312 3.141837 C 403.395854 2.490795 403.223979 1.501212 402.463562 0.626212 C 401.651062 -0.186288 400.614604 -0.39983 399.84377 -0.39983 L 385.557311 -0.39983 C 384.744811 -0.39983 383.973978 -0.134205 383.437519 0.303295 C 382.895852 0.69392 382.281269 1.344962 382.067727 2.313712 L 372.255227 38.365797 C 371.817727 40.110589 372.630227 41.959548 374.265644 42.667881 C 374.708352 42.891839 375.145852 42.949131 375.692727 42.949131 L 383.109394 42.949131 C 385.114603 42.949131 385.942728 41.693923 386.755228 39.621006 L 388.338561 35.371006 L 396.68752 35.371006 L 398.322937 39.621006 C 399.135437 41.693923 399.963562 43.001214 401.96877 43.001214 L 409.385438 43.001214 C 409.984396 43.001214 410.583354 42.839756 411.026063 42.558506 C 412.500021 41.803298 413.208354 40.058506 412.822938 38.417881 Z M 395.104187 22.766838 L 390.03127 22.766838 C 389.484395 22.766838 389.046895 22.282463 389.322936 21.740796 L 390.734395 18.027254 L 391.828145 15.188713 C 392.052103 14.485588 393.026061 14.485588 393.25002 15.188713 L 394.395853 18.027254 L 395.807312 21.740796 C 395.979187 22.282463 395.59377 22.766838 395.104187 22.766838 Z M 395.104187 22.766838 " stroke="rgb(100%, 39.99939%, 76.858521%)" stroke-width="0.886169" stroke-opacity="1" stroke-miterlimit="4"/><g fill="rgb(36.079407%, 88.238525%, 90.19928%)" fill-opacity="1"><g transform="translate(33.152318, 221.555465)"><g><path d="M 12.761719 -23.84375 L 21.0625 -23.84375 C 22.25 -23.84375 23.230469 -24.824219 23.230469 -25.96875 L 23.230469 -30.550781 C 23.230469 -31.738281 22.25 -32.675781 21.0625 -32.675781 L 4.335938 -32.675781 C 2.660156 -32.675781 1.351562 -31.367188 1.351562 -30.429688 L 1.351562 -3.804688 C 1.351562 -1.390625 2.660156 -0.0820312 4.335938 -0.0820312 L 21.0625 -0.0820312 C 22.25 -0.0820312 23.230469 -1.023438 23.230469 -2.207031 L 23.230469 -6.789062 C 23.230469 -7.976562 22.25 -8.996094 21.0625 -8.996094 L 12.761719 -8.996094 C 12.597656 -8.996094 12.472656 -9.121094 12.472656 -9.285156 L 12.472656 -11.902344 C 12.472656 -12.066406 12.597656 -12.1875 12.761719 -12.1875 L 18.773438 -12.1875 C 19.835938 -12.1875 20.734375 -13.046875 20.734375 -14.152344 L 20.734375 -18.609375 C 20.734375 -19.671875 19.835938 -20.570312 18.773438 -20.570312 L 12.761719 -20.570312 C 12.597656 -20.570312 12.472656 -20.695312 12.472656 -20.816406 L 12.472656 -23.515625 C 12.472656 -23.640625 12.597656 -23.84375 12.761719 -23.84375 Z M 12.761719 -23.84375 "/></g></g></g><g fill="rgb(36.079407%, 88.238525%, 90.19928%)" fill-opacity="1"><g transform="translate(57.725219, 221.555465)"><g><path d="M 20.285156 -11.042969 L 12.308594 -11.042969 L 12.308594 -29.40625 C 12.308594 -31.164062 10.757812 -32.71875 9.078125 -32.71875 L 4.335938 -32.71875 C 2.578125 -32.71875 1.351562 -31.164062 1.351562 -29.40625 L 1.351562 -2.699219 C 1.351562 -1.226562 2.289062 0 4.050781 0 L 20.285156 0 C 21.796875 0 23.023438 -1.226562 23.023438 -2.699219 L 23.023438 -8.179688 C 23.023438 -9.691406 21.796875 -11.042969 20.285156 -11.042969 Z M 20.285156 -11.042969 "/></g></g></g><g fill="rgb(36.079407%, 88.238525%, 90.19928%)" fill-opacity="1"><g transform="translate(82.093694, 221.555465)"><g/></g></g><g fill="rgb(36.079407%, 88.238525%, 90.19928%)" fill-opacity="1"><g transform="translate(95.995175, 221.555465)"><g><path d="M 17.339844 -12.964844 C 16.972656 -12.964844 16.6875 -12.679688 16.6875 -12.308594 C 16.6875 -10.917969 15.417969 -9.691406 13.988281 -9.691406 C 12.472656 -9.691406 11.289062 -10.917969 11.289062 -12.308594 L 11.289062 -20.40625 C 11.289062 -22.371094 13.375 -23.925781 15.582031 -22.65625 C 16.195312 -22.289062 16.6875 -21.390625 16.6875 -20.652344 L 16.6875 -20.449219 C 16.6875 -20.121094 16.972656 -19.792969 17.339844 -19.792969 L 26.664062 -19.792969 C 26.953125 -19.792969 27.238281 -20.082031 27.238281 -20.40625 L 27.238281 -21.144531 C 27.238281 -27.851562 20.816406 -33.25 13.988281 -33.25 C 7.28125 -33.25 0.695312 -27.851562 0.695312 -21.144531 L 0.695312 -11.902344 C 0.695312 -4.949219 7.28125 0.492188 13.988281 0.492188 C 20.816406 0.492188 27.238281 -4.949219 27.238281 -11.902344 L 27.238281 -12.390625 C 27.238281 -12.679688 26.953125 -12.964844 26.664062 -12.964844 Z M 17.339844 -12.964844 "/></g></g></g><g fill="rgb(36.079407%, 88.238525%, 90.19928%)" fill-opacity="1"><g transform="translate(123.920794, 221.555465)"><g><path d="M 20.285156 -11.042969 L 12.308594 -11.042969 L 12.308594 -29.40625 C 12.308594 -31.164062 10.757812 -32.71875 9.078125 -32.71875 L 4.335938 -32.71875 C 2.578125 -32.71875 1.351562 -31.164062 1.351562 -29.40625 L 1.351562 -2.699219 C 1.351562 -1.226562 2.289062 0 4.050781 0 L 20.285156 0 C 21.796875 0 23.023438 -1.226562 23.023438 -2.699219 L 23.023438 -8.179688 C 23.023438 -9.691406 21.796875 -11.042969 20.285156 -11.042969 Z M 20.285156 -11.042969 "/></g></g></g><g fill="rgb(36.079407%, 88.238525%, 90.19928%)" fill-opacity="1"><g transform="translate(148.289268, 221.555465)"><g><path d="M 24.90625 -32.636719 L 18.445312 -32.636719 C 17.136719 -32.636719 16.074219 -31.492188 16.074219 -30.183594 L 16.074219 -11.613281 C 16.074219 -10.632812 15.253906 -9.855469 14.273438 -9.855469 C 13.332031 -9.855469 12.515625 -10.632812 12.515625 -11.613281 L 12.515625 -31.121094 C 12.515625 -31.941406 11.859375 -32.59375 11.082031 -32.59375 L 2.125 -32.59375 C 1.351562 -32.59375 0.695312 -31.941406 0.695312 -31.121094 L 0.695312 -11.695312 C 0.695312 -4.824219 7.117188 0.777344 13.988281 0.777344 C 20.734375 0.777344 27.035156 -4.5 27.320312 -11.164062 L 27.320312 -30.183594 C 27.320312 -31.492188 26.214844 -32.636719 24.90625 -32.636719 Z M 24.90625 -32.636719 "/></g></g></g><g fill="rgb(36.079407%, 88.238525%, 90.19928%)" fill-opacity="1"><g transform="translate(176.296655, 221.555465)"><g><path d="M 22.65625 -16.359375 C 23.023438 -16.726562 25.644531 -18.773438 25.644531 -24.046875 C 25.644531 -26.132812 24.949219 -28.300781 23.640625 -29.8125 C 22.207031 -31.492188 20.324219 -32.59375 17.667969 -32.59375 L 4.253906 -32.59375 C 3.066406 -32.59375 2.371094 -31.980469 1.839844 -31.285156 C 1.308594 -30.550781 1.351562 -29.773438 1.351562 -29.773438 L 1.351562 -2.902344 C 1.351562 -2.738281 1.351562 -1.921875 2.003906 -1.1875 C 2.289062 -0.816406 2.984375 -0.121094 4.253906 -0.121094 L 9.449219 -0.121094 L 17.789062 -0.0820312 C 20.082031 -0.0820312 22.085938 -1.1875 23.515625 -2.820312 C 24.824219 -4.335938 25.683594 -6.828125 25.683594 -8.628906 C 25.804688 -13.210938 23.351562 -15.785156 22.65625 -16.359375 Z M 15.910156 -24.171875 L 15.910156 -23.640625 C 15.910156 -22.738281 15.214844 -22.042969 14.273438 -22.042969 L 11.820312 -22.042969 C 11.53125 -22.042969 11.371094 -22.207031 11.371094 -22.453125 L 11.371094 -25.316406 C 11.371094 -25.5625 11.53125 -25.765625 11.820312 -25.765625 L 14.273438 -25.765625 C 15.214844 -25.765625 15.910156 -25.027344 15.910156 -24.171875 Z M 15.910156 -10.46875 L 15.910156 -9.285156 C 15.910156 -8.382812 15.214844 -7.648438 14.273438 -7.648438 L 11.820312 -7.648438 C 11.53125 -7.648438 11.371094 -7.894531 11.371094 -8.097656 L 11.371094 -11.695312 C 11.371094 -11.941406 11.53125 -12.105469 11.820312 -12.105469 L 14.273438 -12.105469 C 15.214844 -12.105469 15.910156 -11.410156 15.910156 -10.46875 Z M 15.910156 -10.46875 "/></g></g></g><g fill="rgb(36.079407%, 88.238525%, 90.19928%)" fill-opacity="1"><g transform="translate(202.668579, 221.555465)"><g/></g></g><g fill="rgb(36.079407%, 88.238525%, 90.19928%)" fill-opacity="1"><g transform="translate(216.57006, 221.555465)"><g><path d="M 15.296875 -32.675781 L 4.292969 -32.675781 C 2.578125 -32.675781 1.351562 -31.246094 1.351562 -29.734375 L 1.351562 -3.109375 C 1.351562 -1.636719 2.578125 -0.121094 4.292969 -0.121094 L 15.296875 -0.121094 C 21.714844 -0.121094 26.625 -5.316406 26.625 -11.492188 L 26.625 -21.347656 C 26.625 -27.523438 21.714844 -32.675781 15.296875 -32.675781 Z M 16.644531 -15.417969 C 16.644531 -13.699219 15.378906 -12.515625 13.699219 -12.515625 L 11.738281 -12.515625 C 11.453125 -12.515625 11.164062 -12.71875 11.164062 -13.210938 L 11.164062 -19.589844 C 11.164062 -20.121094 11.453125 -20.367188 11.738281 -20.367188 L 13.699219 -20.367188 C 15.378906 -20.367188 16.644531 -19.140625 16.644531 -17.382812 Z M 16.644531 -15.417969 "/></g></g></g><g fill="rgb(36.079407%, 88.238525%, 90.19928%)" fill-opacity="1"><g transform="translate(244.209462, 221.555465)"><g><path d="M 12.761719 -23.84375 L 21.0625 -23.84375 C 22.25 -23.84375 23.230469 -24.824219 23.230469 -25.96875 L 23.230469 -30.550781 C 23.230469 -31.738281 22.25 -32.675781 21.0625 -32.675781 L 4.335938 -32.675781 C 2.660156 -32.675781 1.351562 -31.367188 1.351562 -30.429688 L 1.351562 -3.804688 C 1.351562 -1.390625 2.660156 -0.0820312 4.335938 -0.0820312 L 21.0625 -0.0820312 C 22.25 -0.0820312 23.230469 -1.023438 23.230469 -2.207031 L 23.230469 -6.789062 C 23.230469 -7.976562 22.25 -8.996094 21.0625 -8.996094 L 12.761719 -8.996094 C 12.597656 -8.996094 12.472656 -9.121094 12.472656 -9.285156 L 12.472656 -11.902344 C 12.472656 -12.066406 12.597656 -12.1875 12.761719 -12.1875 L 18.773438 -12.1875 C 19.835938 -12.1875 20.734375 -13.046875 20.734375 -14.152344 L 20.734375 -18.609375 C 20.734375 -19.671875 19.835938 -20.570312 18.773438 -20.570312 L 12.761719 -20.570312 C 12.597656 -20.570312 12.472656 -20.695312 12.472656 -20.816406 L 12.472656 -23.515625 C 12.472656 -23.640625 12.597656 -23.84375 12.761719 -23.84375 Z M 12.761719 -23.84375 "/></g></g></g><g fill="rgb(36.079407%, 88.238525%, 90.19928%)" fill-opacity="1"><g transform="translate(268.782352, 221.555465)"><g/></g></g><g fill="rgb(36.079407%, 88.238525%, 90.19928%)" fill-opacity="1"><g transform="translate(282.683833, 221.555465)"><g><path d="M 20.285156 -11.042969 L 12.308594 -11.042969 L 12.308594 -29.40625 C 12.308594 -31.164062 10.757812 -32.71875 9.078125 -32.71875 L 4.335938 -32.71875 C 2.578125 -32.71875 1.351562 -31.164062 1.351562 -29.40625 L 1.351562 -2.699219 C 1.351562 -1.226562 2.289062 0 4.050781 0 L 20.285156 0 C 21.796875 0 23.023438 -1.226562 23.023438 -2.699219 L 23.023438 -8.179688 C 23.023438 -9.691406 21.796875 -11.042969 20.285156 -11.042969 Z M 20.285156 -11.042969 "/></g></g></g><g fill="rgb(36.079407%, 88.238525%, 90.19928%)" fill-opacity="1"><g transform="translate(307.052308, 221.555465)"><g><path d="M 31.203125 -3.433594 L 24.253906 -29.894531 C 24.128906 -30.386719 24.007812 -31.121094 23.433594 -31.777344 C 22.820312 -32.390625 22.042969 -32.554688 21.472656 -32.554688 L 10.757812 -32.554688 C 10.144531 -32.554688 9.570312 -32.351562 9.160156 -32.023438 C 8.753906 -31.738281 8.300781 -31.246094 8.136719 -30.507812 L 0.777344 -3.476562 C 0.449219 -2.167969 1.0625 -0.777344 2.289062 -0.246094 C 2.617188 -0.0820312 2.945312 -0.0390625 3.355469 -0.0390625 L 8.914062 -0.0390625 C 10.429688 -0.0390625 11.042969 -0.980469 11.65625 -2.535156 L 12.84375 -5.726562 L 19.097656 -5.726562 L 20.324219 -2.535156 C 20.941406 -0.980469 21.554688 0 23.066406 0 L 28.628906 0 C 29.078125 0 29.527344 -0.121094 29.855469 -0.328125 C 30.960938 -0.898438 31.492188 -2.207031 31.203125 -3.433594 Z M 17.914062 -15.171875 L 14.109375 -15.171875 C 13.699219 -15.171875 13.375 -15.542969 13.578125 -15.949219 L 14.640625 -18.730469 L 15.460938 -20.859375 C 15.621094 -21.390625 16.359375 -21.390625 16.523438 -20.859375 L 17.382812 -18.730469 L 18.445312 -15.949219 C 18.566406 -15.542969 18.28125 -15.171875 17.914062 -15.171875 Z M 17.914062 -15.171875 "/></g></g></g><path stroke-linecap="butt" transform="matrix(0.75, 0, 0, 0.75, 0.0000045, 188.283753)" fill="none" stroke-linejoin="miter" d="M 63.093748 11.210205 L 74.156249 11.210205 C 75.739582 11.210205 77.057291 9.902913 77.057291 8.371663 L 77.057291 2.262288 C 77.057291 0.689371 75.739582 -0.571046 74.156249 -0.571046 L 51.854164 -0.571046 C 49.619789 -0.571046 47.874997 1.168537 47.874997 2.434163 L 47.874997 37.928957 C 47.874997 41.147707 49.619789 42.892499 51.854164 42.892499 L 74.156249 42.892499 C 75.739582 42.892499 77.057291 41.642498 77.057291 40.059165 L 77.057291 33.944581 C 77.057291 32.361248 75.739582 31.007081 74.156249 31.007081 L 63.093748 31.007081 C 62.880206 31.007081 62.708331 30.845623 62.708331 30.616456 L 62.708331 27.132081 C 62.708331 26.918539 62.880206 26.746664 63.093748 26.746664 L 71.104165 26.746664 C 72.531249 26.746664 73.729166 25.600831 73.729166 24.137289 L 73.729166 18.184164 C 73.729166 16.772705 72.531249 15.574788 71.104165 15.574788 L 63.093748 15.574788 C 62.880206 15.574788 62.708331 15.402913 62.708331 15.241455 L 62.708331 11.647705 C 62.708331 11.486246 62.880206 11.210205 63.093748 11.210205 Z M 105.895834 28.277914 L 95.255209 28.277914 L 95.255209 3.793538 C 95.255209 1.449787 93.182292 -0.628338 90.942708 -0.628338 L 84.619791 -0.628338 C 82.276041 -0.628338 80.640624 1.449787 80.640624 3.793538 L 80.640624 39.402915 C 80.640624 41.361248 81.890624 43.001874 84.244791 43.001874 L 105.895834 43.001874 C 107.906251 43.001874 109.541668 41.361248 109.541668 39.402915 L 109.541668 32.095623 C 109.541668 30.074789 107.906251 28.277914 105.895834 28.277914 Z M 152.994796 25.720622 C 152.500004 25.720622 152.114587 26.090414 152.114587 26.585206 C 152.114587 28.434164 150.421879 30.074789 148.520837 30.074789 C 146.494795 30.074789 144.911462 28.434164 144.911462 26.585206 L 144.911462 15.78833 C 144.911462 13.16333 147.692712 11.10083 150.651046 12.793538 C 151.463546 13.283122 152.114587 14.481038 152.114587 15.470622 L 152.114587 15.736247 C 152.114587 16.173747 152.500004 16.611247 152.994796 16.611247 L 165.427088 16.611247 C 165.802088 16.611247 166.187505 16.22583 166.187505 15.78833 L 166.187505 14.803955 C 166.187505 5.871663 157.625004 -1.331463 148.520837 -1.331463 C 139.57292 -1.331463 130.802086 5.871663 130.802086 14.803955 L 130.802086 27.132081 C 130.802086 36.397706 139.57292 43.652915 148.520837 43.652915 C 157.625004 43.652915 166.187505 36.397706 166.187505 27.132081 L 166.187505 26.481039 C 166.187505 26.090414 165.802088 25.720622 165.427088 25.720622 Z M 194.156257 28.277914 L 183.515631 28.277914 L 183.515631 3.793538 C 183.515631 1.449787 181.442714 -0.628338 179.203131 -0.628338 L 172.880214 -0.628338 C 170.536464 -0.628338 168.901047 1.449787 168.901047 3.793538 L 168.901047 39.402915 C 168.901047 41.361248 170.151047 43.001874 172.510422 43.001874 L 194.156257 43.001874 C 196.166674 43.001874 197.80209 41.361248 197.80209 39.402915 L 197.80209 32.095623 C 197.80209 30.074789 196.166674 28.277914 194.156257 28.277914 Z M 232.796884 -0.518963 L 224.1823 -0.518963 C 222.437509 -0.518963 221.02605 1.012287 221.02605 2.757079 L 221.02605 27.517497 C 221.02605 28.819581 219.937508 29.861248 218.630217 29.861248 C 217.364592 29.861248 216.27605 28.819581 216.27605 27.517497 L 216.27605 1.501871 C 216.27605 0.413329 215.411466 -0.466879 214.3698 -0.466879 L 202.432299 -0.466879 C 201.390632 -0.466879 200.526049 0.413329 200.526049 1.501871 L 200.526049 27.408122 C 200.526049 36.569581 209.088549 44.038332 218.2448 44.038332 C 227.244801 44.038332 235.630218 36.996665 236.020843 28.116456 L 236.020843 2.757079 C 236.020843 1.012287 234.552093 -0.518963 232.796884 -0.518963 Z M 267.145845 21.19458 C 267.635428 20.699789 271.125012 17.970622 271.125012 10.94458 C 271.125012 8.158121 270.208345 5.272704 268.447928 3.246663 C 266.546887 1.012287 264.041678 -0.466879 260.489594 -0.466879 L 242.609385 -0.466879 C 241.026051 -0.466879 240.104176 0.356037 239.385426 1.288329 C 238.682301 2.262288 238.734385 3.298746 238.734385 3.298746 L 238.734385 39.126873 C 238.734385 39.350832 238.734385 40.428957 239.614593 41.413332 C 239.984385 41.908123 240.916676 42.840415 242.609385 42.840415 L 249.53126 42.840415 L 260.661469 42.892499 C 263.708345 42.892499 266.385428 41.413332 268.291678 39.23104 C 270.031262 37.220623 271.177095 33.892498 271.177095 31.496664 C 271.34897 25.387289 268.078137 21.949789 267.145845 21.19458 Z M 258.145844 10.767496 L 258.145844 11.486246 C 258.145844 12.684163 257.223969 13.606038 255.973969 13.606038 L 252.697927 13.606038 C 252.312511 13.606038 252.098969 13.392497 252.098969 13.059163 L 252.098969 9.251871 C 252.098969 8.918538 252.312511 8.652913 252.697927 8.652913 L 255.973969 8.652913 C 257.223969 8.652913 258.145844 9.626871 258.145844 10.767496 Z M 258.145844 29.033123 L 258.145844 30.616456 C 258.145844 31.819581 257.223969 32.803956 255.973969 32.803956 L 252.697927 32.803956 C 252.312511 32.803956 252.098969 32.470623 252.098969 32.204998 L 252.098969 27.408122 C 252.098969 27.079997 252.312511 26.866456 252.697927 26.866456 L 255.973969 26.866456 C 257.223969 26.866456 258.145844 27.783123 258.145844 29.033123 Z M 311.031264 -0.571046 L 296.359388 -0.571046 C 294.067722 -0.571046 292.432305 1.345621 292.432305 3.356038 L 292.432305 38.861248 C 292.432305 40.814373 294.067722 42.840415 296.359388 42.840415 L 311.031264 42.840415 C 319.588557 42.840415 326.125015 35.91854 326.125015 27.678956 L 326.125015 14.53833 C 326.125015 6.293538 319.588557 -0.571046 311.031264 -0.571046 Z M 312.82814 22.44458 C 312.82814 24.736247 311.135431 26.319581 308.901056 26.319581 L 306.291681 26.319581 C 305.906264 26.319581 305.520847 26.038331 305.520847 25.387289 L 305.520847 16.88208 C 305.520847 16.173747 305.906264 15.840413 306.291681 15.840413 L 308.901056 15.840413 C 311.135431 15.840413 312.82814 17.481038 312.82814 19.81958 Z M 344.500017 11.210205 L 355.562517 11.210205 C 357.151059 11.210205 358.468768 9.902913 358.468768 8.371663 L 358.468768 2.262288 C 358.468768 0.689371 357.151059 -0.571046 355.562517 -0.571046 L 333.265641 -0.571046 C 331.031266 -0.571046 329.286474 1.168537 329.286474 2.434163 L 329.286474 37.928957 C 329.286474 41.147707 331.031266 42.892499 333.265641 42.892499 L 355.562517 42.892499 C 357.151059 42.892499 358.468768 41.642498 358.468768 40.059165 L 358.468768 33.944581 C 358.468768 32.361248 357.151059 31.007081 355.562517 31.007081 L 344.500017 31.007081 C 344.286475 31.007081 344.1146 30.845623 344.1146 30.616456 L 344.1146 27.132081 C 344.1146 26.918539 344.286475 26.746664 344.500017 26.746664 L 352.515642 26.746664 C 353.942726 26.746664 355.140642 25.600831 355.140642 24.137289 L 355.140642 18.184164 C 355.140642 16.772705 353.942726 15.574788 352.515642 15.574788 L 344.500017 15.574788 C 344.286475 15.574788 344.1146 15.402913 344.1146 15.241455 L 344.1146 11.647705 C 344.1146 11.486246 344.286475 11.210205 344.500017 11.210205 Z M 405.838562 28.277914 L 395.203145 28.277914 L 395.203145 3.793538 C 395.203145 1.449787 393.12502 -0.628338 390.890645 -0.628338 L 384.562519 -0.628338 C 382.223977 -0.628338 380.583352 1.449787 380.583352 3.793538 L 380.583352 39.402915 C 380.583352 41.361248 381.833352 43.001874 384.192728 43.001874 L 405.838562 43.001874 C 407.848979 43.001874 409.484396 41.361248 409.484396 39.402915 L 409.484396 32.095623 C 409.484396 30.074789 407.848979 28.277914 405.838562 28.277914 Z M 452.880232 38.41854 L 443.614606 3.142496 C 443.453148 2.486246 443.281273 1.501871 442.526065 0.626871 C 441.713565 -0.185629 440.671898 -0.399171 439.901065 -0.399171 L 425.614605 -0.399171 C 424.802105 -0.399171 424.031272 -0.133546 423.500022 0.303954 C 422.953147 0.689371 422.343772 1.345621 422.13023 2.314371 L 412.317729 38.366457 C 411.875021 40.111248 412.687521 41.960207 414.328146 42.66854 C 414.765646 42.892499 415.203146 42.944582 415.750021 42.944582 L 423.166688 42.944582 C 425.177105 42.944582 426.000022 41.694582 426.812522 39.616457 L 428.401064 35.371665 L 436.744814 35.371665 L 438.385439 39.616457 C 439.19794 41.694582 440.020856 43.001874 442.031273 43.001874 L 449.44794 43.001874 C 450.046899 43.001874 450.645857 42.840415 451.083357 42.559165 C 452.562524 41.803957 453.265649 40.059165 452.880232 38.41854 Z M 435.161481 22.762289 L 430.088564 22.762289 C 429.541689 22.762289 429.104189 22.283122 429.385439 21.741455 L 430.796897 18.022705 L 431.885439 15.189372 C 432.114606 14.481038 433.083356 14.481038 433.312522 15.189372 L 434.458356 18.022705 L 435.869814 21.741455 C 436.041689 22.283122 435.656273 22.762289 435.161481 22.762289 Z M 435.161481 22.762289 " stroke="rgb(69.799805%, 92.939758%, 93.728638%)" stroke-width="0.886169" stroke-opacity="1" stroke-miterlimit="4"/></svg>